<svg width="64" height="64" viewBox="0 0 64 64" fill="none" xmlns="http://www.w3.org/2000/svg">
<path d="M5.1017 33.3447C5.38046 30.3822 5.99271 28.6918 7.44414 26.0943C8.96529 23.3719 10.2453 22.011 12.6868 20.0708C14.6199 18.5346 15.9032 17.9107 18.1525 16.8918C22.2378 15.0413 24.8375 14.5308 29.3069 14.159C31.6729 13.9621 33.0229 13.9324 35.3861 14.159C37.7716 14.3876 39.1056 14.6713 41.4096 15.3302C44.1628 16.1175 45.7127 16.6686 48.2138 18.063C50.9837 19.6073 52.5733 20.6037 54.6834 22.971C56.4363 24.9375 57.285 26.2324 58.3086 28.6598C59.1749 30.714 59.5289 31.9638 59.7587 34.1813C59.9137 35.6761 60.0091 36.5477 59.7587 38.0296C59.4843 39.6534 59.1361 40.5656 58.3086 41.9894C57.6079 43.1952 57.0782 43.8065 56.0777 44.7781C55.0621 45.7643 54.391 46.2238 53.1776 46.9532C51.1739 48.1576 49.8442 48.4723 47.6003 49.1283C45.6978 49.6845 44.5933 49.8715 42.6366 50.188C40.2597 50.5725 38.9065 50.6829 36.5016 50.8015C34.1522 50.9173 32.8265 50.9388 30.4782 50.8015C28.3339 50.676 27.1364 50.5081 25.0125 50.188C21.6881 49.6869 19.7647 49.5118 16.5908 48.4033C14.3088 47.6062 12.928 47.2383 10.9578 45.8377C9.48868 44.7933 8.69301 44.1007 7.61146 42.6587C6.38991 41.03 5.77788 39.9586 5.32479 37.9738C5.20685 37.4572 5.16356 37.1616 5.1017 36.6353C4.9517 35.359 4.98131 34.6241 5.1017 33.3447Z" fill="white"/>
<path d="M8.65765 33.2385C8.89944 30.6681 9.43048 29.2014 10.6894 26.9476C12.0088 24.5856 13.119 23.4048 15.2367 21.7214C16.9135 20.3884 18.0265 19.8471 19.9775 18.9631C23.521 17.3575 25.7758 16.9145 29.6526 16.5919C31.7047 16.4212 32.8757 16.3954 34.9255 16.5919C36.9945 16.7903 38.1516 17.0365 40.15 17.6081C42.538 18.2912 43.8824 18.7694 46.0518 19.9793C48.4543 21.3192 49.8331 22.1837 51.6633 24.2377C53.1837 25.944 53.9199 27.0675 54.8077 29.1736C55.5591 30.956 55.8661 32.0403 56.0655 33.9643C56.1999 35.2613 56.2827 36.0176 56.0655 37.3033C55.8275 38.7122 55.5254 39.5037 54.8077 40.7391C54.2 41.7853 53.7405 42.3156 52.8727 43.1586C51.9918 44.0144 51.4097 44.413 50.3572 45.0459C48.6193 46.0909 47.466 46.364 45.5197 46.9332C43.8695 47.4157 42.9115 47.578 41.2143 47.8526C39.1526 48.1862 37.9789 48.282 35.893 48.3849C33.8551 48.4854 32.7053 48.5041 30.6684 48.3849C28.8086 48.2761 27.7699 48.1303 25.9277 47.8526C23.0442 47.4178 21.3759 47.2659 18.623 46.3041C16.6436 45.6125 15.4459 45.2933 13.7371 44.0781C12.4628 43.1719 11.7726 42.5709 10.8345 41.3198C9.775 39.9067 9.24415 38.9771 8.85115 37.2549C8.74885 36.8067 8.7113 36.5502 8.65765 36.0935C8.52754 34.9862 8.55322 34.3485 8.65765 33.2385Z" fill="black"/>
<path d="M35.4445 31.8965C36.2203 29.7956 38.5144 28.104 40.0736 27.4905C42.0231 26.7234 44.6993 26.2904 46.7105 26.877C48.0491 27.2674 48.7919 27.5361 49.8338 28.7732C50.7261 29.8329 50.8994 33.7971 48.8299 35.5217C47.826 36.3583 47.0452 37.0276 45.8739 37.5295C42.9515 38.782 38.6793 38.3114 37.1734 37.5295C34.932 36.3657 34.5696 34.2656 35.4445 31.8965Z" fill="#248AC8"/>
<path d="M29.5018 31.8965C28.726 29.7956 26.4319 28.104 24.8727 27.4905C22.9231 26.7234 20.2469 26.2904 18.2357 26.877C16.8972 27.2674 16.1543 27.5361 15.1125 28.7732C14.2201 29.8329 14.0468 33.7971 16.1164 35.5217C17.1203 36.3583 17.9011 37.0276 19.0723 37.5295C21.9948 38.782 26.267 38.3114 27.7728 37.5295C30.0142 36.3657 30.3766 34.2656 29.5018 31.8965Z" fill="#248AC8"/>
</svg>
