<svg xmlns="http://www.w3.org/2000/svg" width="25" height="25" fill="none" xmlns:v="https://vecta.io/nano"><path d="M.046 13.107C.173 11.1.452 9.955 1.113 8.195 1.805 6.35 2.388 5.428 3.5 4.113c.88-1.04 1.464-1.464 2.488-2.154C7.848.706 9.03.36 11.066.108c1.077-.133 1.692-.154 2.768 0 1.086.155 1.693.347 2.742.794 1.253.533 1.96.907 3.098 1.852 1.26 1.046 1.985 1.72 2.945 3.325.798 1.332 1.185 2.2 1.65 3.855a15.85 15.85 0 0 1 .66 3.741c.07 1.013.114 1.603 0 2.608a9.24 9.24 0 0 1-.66 2.683c-.32.817-.56 1.23-1.016 1.89-.462.668-.768.98-1.32 1.474-.912.816-1.518 1.03-2.54 1.474-.866.377-1.37.503-2.26.718-1.082.26-1.698.335-2.793.416-1.07.078-1.673.093-2.742 0-.976-.085-1.52-.2-2.488-.416-1.513-.34-2.39-.458-3.834-1.21-1.04-.54-1.668-.79-2.565-1.738a7.79 7.79 0 0 1-1.523-2.154c-.556-1.104-.835-1.83-1.04-3.174l-.102-.907c-.068-.865-.055-1.363 0-2.23z" fill="#fff"/><path d="M1.665 13.035c.1-1.742.352-2.735.925-4.262.6-1.6 1.106-2.4 2.07-3.54.763-.903 1.27-1.27 2.158-1.87 1.613-1.088 2.64-1.388 4.405-1.607.934-.116 1.467-.133 2.4 0 .942.134 1.47.3 2.38.69 1.087.463 1.7.787 2.687 1.607 1.094.908 1.72 1.494 2.555 2.885.692 1.156 1.027 1.917 1.43 3.344.342 1.208.482 1.942.573 3.246.06.88.1 1.39 0 2.262-.108.955-.246 1.49-.573 2.328-.277.71-.486 1.068-.88 1.64-.4.58-.666.85-1.145 1.28-.79.708-1.316.893-2.202 1.28-.75.327-1.187.437-1.96.623-.94.226-1.473.29-2.423.36-.928.068-1.45.08-2.38 0-.847-.074-1.32-.172-2.158-.36-1.313-.295-2.072-.398-3.326-1.05-.9-.47-1.446-.685-2.224-1.508-.58-.614-.894-1.02-1.32-1.87-.482-.957-.724-1.587-.903-2.754l-.088-.787c-.06-.75-.048-1.182 0-1.935z" fill="#000"/><path d="M13.86 12.126c.353-1.423 1.398-2.57 2.108-2.985.887-.52 2.106-.813 3.02-.416.6.265.948.447 1.422 1.285.406.718.485 3.404-.457 4.573-.457.567-.812 1.02-1.346 1.36-1.33.85-3.275.53-3.96 0-1.02-.8-1.185-2.2-.787-3.817zm-2.705 0c-.353-1.423-1.398-2.57-2.108-2.985-.888-.52-2.106-.813-3.022-.416-.6.265-.948.447-1.422 1.285-.406.718-.485 3.404.457 4.573.457.567.813 1.02 1.346 1.36 1.33.85 3.275.53 3.96 0 1.02-.8 1.185-2.2.787-3.817z" fill="#248ac8"/></svg>