<svg width="45" height="30" viewBox="0 0 45 30" fill="none" xmlns="http://www.w3.org/2000/svg">
<path d="M0.082689 15.7288C0.309349 13.3201 0.807157 11.9457 1.98729 9.83365C3.22411 7.62016 4.26486 6.51363 6.24997 4.9361C7.82182 3.68699 8.86519 3.17971 10.694 2.35128C14.0158 0.84663 16.1295 0.431575 19.7636 0.12925C21.6872 -0.0307845 22.785 -0.0549586 24.7065 0.12925C26.646 0.315186 27.7307 0.545851 29.604 1.08155C31.8426 1.72169 33.1028 2.1698 35.1364 3.30359C37.3886 4.55922 38.681 5.36933 40.3968 7.29418C41.822 8.89314 42.5121 9.94599 43.3444 11.9196C44.0487 13.5899 44.3365 14.606 44.5234 16.4091C44.6494 17.6245 44.727 18.3332 44.5234 19.538C44.3003 20.8583 44.0171 21.6 43.3444 22.7577C42.7746 23.7382 42.3439 24.2351 41.5305 25.0251C40.7046 25.827 40.159 26.2006 39.1724 26.7937C37.5432 27.773 36.4621 28.0288 34.6376 28.5622C33.0907 29.0145 32.1926 29.1665 30.6017 29.4238C28.669 29.7365 27.5688 29.8263 25.6134 29.9227C23.7031 30.0168 22.6252 30.0344 20.7159 29.9227C18.9724 29.8207 17.9987 29.6841 16.2718 29.4238C13.5688 29.0164 12.0049 28.8741 9.42431 27.9727C7.56881 27.3246 6.44609 27.0255 4.84419 25.8867C3.64967 25.0375 3.00272 24.4744 2.12333 23.3019C1.13011 21.9777 0.632484 21.1065 0.26408 19.4927C0.168183 19.0726 0.132985 18.8323 0.082689 18.4044C-0.0392729 17.3666 -0.0151979 16.7691 0.082689 15.7288Z" fill="white"/>
<path d="M2.97397 15.6425C3.17057 13.5525 3.60235 12.36 4.62597 10.5275C5.69874 8.60695 6.60146 7.64686 8.32329 6.27812C9.68666 5.19432 10.5916 4.75418 12.1779 4.0354C15.0591 2.72988 16.8925 2.36976 20.0446 2.10744C21.7131 1.96859 22.6652 1.94762 24.3319 2.10744C26.0142 2.26877 26.955 2.46891 28.5799 2.93371C30.5216 3.48913 31.6147 3.87793 33.3785 4.86166C35.332 5.95112 36.453 6.65401 37.9412 8.32411C39.1774 9.71145 39.776 10.625 40.4978 12.3374C41.1088 13.7866 41.3584 14.6683 41.5205 16.2327C41.6298 17.2872 41.6971 17.9021 41.5205 18.9475C41.327 20.0931 41.0814 20.7366 40.4978 21.7411C40.0037 22.5918 39.6301 23.023 38.9245 23.7084C38.2082 24.4042 37.7349 24.7283 36.8792 25.2429C35.4661 26.0926 34.5284 26.3146 32.9459 26.7774C31.6041 27.1698 30.8252 27.3017 29.4452 27.525C27.7689 27.7962 26.8146 27.8741 25.1186 27.9578C23.4616 28.0395 22.5267 28.0547 20.8706 27.9578C19.3584 27.8693 18.5138 27.7508 17.0159 27.525C14.6714 27.1715 13.315 27.0479 11.0766 26.2659C9.46721 25.7036 8.49339 25.444 7.10396 24.456C6.06786 23.7192 5.50672 23.2305 4.74396 22.2132C3.88247 21.0643 3.45085 20.3084 3.1313 18.9082C3.04813 18.5437 3.0176 18.3352 2.97397 17.9639C2.86818 17.0635 2.88907 16.545 2.97397 15.6425Z" fill="black"/>
<path d="M24.7539 14.5513C25.3847 12.8431 27.25 11.4677 28.5177 10.9689C30.1029 10.3452 32.2788 9.99308 33.9141 10.47C35.0025 10.7875 35.6065 11.0059 36.4536 12.0119C37.1792 12.8735 37.32 16.0967 35.6373 17.4989C34.8211 18.1791 34.1862 18.7233 33.2339 19.1314C30.8577 20.1498 27.3841 19.7672 26.1597 19.1314C24.3372 18.1852 24.0426 16.4776 24.7539 14.5513Z" fill="#248AC8"/>
<path d="M19.922 14.5513C19.2912 12.8431 17.4259 11.4677 16.1581 10.9689C14.573 10.3452 12.397 9.99308 10.7618 10.47C9.67341 10.7875 9.06938 11.0059 8.22229 12.0119C7.49672 12.8735 7.35584 16.0967 9.03854 17.4989C9.8548 18.1791 10.4897 18.7233 11.442 19.1314C13.8182 20.1498 17.2918 19.7672 18.5162 19.1314C20.3386 18.1852 20.6333 16.4776 19.922 14.5513Z" fill="#248AC8"/>
</svg>
