<svg width="25" height="25" viewBox="0 0 25 25" fill="none" xmlns="http://www.w3.org/2000/svg">
<g clip-path="url(#clip0)">
<path d="M18.063 7.01401L18.06 11.349L18.04 11.721L18.028 11.848L17.954 12.37L17.92 12.54C17.919 12.55 17.916 12.563 17.913 12.574L17.853 12.834L17.831 12.912L17.735 13.242L17.685 13.396L17.63 13.552L17.613 13.595L17.563 13.725L17.499 13.882L17.439 14.022C17.436 14.03 17.432 14.037 17.429 14.045L17.361 14.191L17.287 14.343L17.131 14.639L17.057 14.769C16.857 15.131 16.613 15.471 16.359 15.785L16.252 15.915L16.098 16.095L15.958 16.249L15.556 16.649L15.471 16.727L15.331 16.85L15.217 16.946L14.921 17.176L14.795 17.276L14.587 17.416L14.469 17.49L14.049 17.724L13.947 17.774L13.84 17.824L13.705 17.881C13.6878 17.8888 13.6701 17.8955 13.652 17.901L13.492 17.961L13.29 18.025L13.15 18.062L13 18.095L12.963 18.102L12.848 18.12L12.684 18.138C12.6655 18.1407 12.6467 18.142 12.628 18.142L12.498 18.146H12.494C12.4516 18.1461 12.4093 18.1447 12.367 18.142C12.35 18.142 12.334 18.141 12.317 18.138L12.197 18.128C12.189 18.128 12.179 18.127 12.171 18.125L12.018 18.1L11.885 18.073C11.6387 18.0157 11.3986 17.9347 11.168 17.831C10.9518 17.735 10.7423 17.6244 10.541 17.5L10.227 17.295L10.071 17.183L9.58901 16.795L9.45901 16.675L9.32901 16.555L9.01701 16.235L8.89701 16.105L8.58001 15.722L8.46701 15.576L8.07501 15.004L7.97801 14.844L7.86601 14.649C7.7275 14.4013 7.6033 14.1459 7.49401 13.884L7.44701 13.769L7.38701 13.619L7.30901 13.402L7.23901 13.182L7.17701 12.967L7.11701 12.734L7.11201 12.709L7.04201 12.377L6.97601 11.927L6.96101 11.784L6.94901 11.634L6.93501 11.357L6.93201 11.177V7.01401C6.93201 3.94401 9.42001 1.45401 12.489 1.45401H12.494C12.9085 1.45419 13.3216 1.50014 13.726 1.59101C14.088 1.67301 14.426 1.79101 14.766 1.93901C15.2142 2.13963 15.6336 2.39926 16.013 2.71101C16.33 2.97101 16.618 3.26301 16.87 3.58501C17.612 4.53001 18.055 5.72001 18.055 7.01501L18.063 7.01401Z" fill="#ECC19C"/>
<path d="M19.747 26.673V26.674H5.254V26.673C5.254 25.855 5.389 25.066 5.639 24.333L5.785 23.94V23.939L5.955 23.556C6.19415 23.0543 6.49045 22.5818 6.838 22.148L7.106 21.834L7.246 21.681L7.392 21.535C7.636 21.291 7.899 21.067 8.175 20.86L8.597 20.568L9.04 20.308L9.22 20.204L9.552 19.984L9.71 19.864L10.065 19.55L10.175 19.438L10.395 19.191L10.495 19.065L10.591 18.935C10.834 18.595 11.031 18.223 11.173 17.835C11.346 17.351 11.441 16.831 11.441 16.287L13.583 16.297C13.5823 16.8182 13.6706 17.3356 13.844 17.827C13.9837 18.222 14.1772 18.5959 14.419 18.938C14.667 19.29 14.964 19.605 15.299 19.874L15.451 19.991L15.603 20.098L15.633 20.12L15.783 20.216L15.953 20.316C15.963 20.319 15.971 20.323 15.978 20.328L16.333 20.538L16.5 20.648L16.832 20.882L16.835 20.883C17.111 21.089 17.372 21.315 17.615 21.558C18.2912 22.2296 18.8275 23.0287 19.1929 23.9089C19.5584 24.7891 19.7457 25.733 19.744 26.686L19.746 26.688L19.747 26.673Z" fill="#ECC19C"/>
<path d="M19.747 26.674H5.254C5.25303 25.8782 5.38311 25.0876 5.639 24.334L5.786 23.941L5.956 23.557C6.19516 23.0553 6.49145 22.5828 6.839 22.149L7.107 21.835L7.247 21.682L7.393 21.536C7.637 21.291 7.9 21.066 8.176 20.861L8.598 20.569L9.04 20.307L9.045 20.304L9.219 20.204C9.38962 20.1011 9.5527 19.9861 9.707 19.86C10.407 20.587 11.402 21.036 12.495 21.04H12.505C13.0252 21.0403 13.5402 20.9365 14.0197 20.7347C14.4992 20.5329 14.9335 20.2372 15.297 19.865L15.298 19.864C15.395 19.9438 15.4958 20.0189 15.6 20.089L15.63 20.111L15.78 20.207L15.95 20.305C15.96 20.308 15.966 20.313 15.975 20.317L16.33 20.517L16.497 20.627L16.829 20.861H16.832C17.1081 21.0674 17.3691 21.2934 17.613 21.537C18.2895 22.2087 18.826 23.0078 19.1917 23.8882C19.5573 24.7686 19.7447 25.7127 19.743 26.666L19.744 26.667L19.747 26.674Z" fill="#C7D4E2"/>
<path d="M18.063 11.168L18.06 11.348L18.04 11.72L18.028 11.847L17.954 12.369L17.92 12.539C17.919 12.549 17.916 12.562 17.913 12.573L17.875 12.743L17.85 12.839C17.8454 12.8633 17.8394 12.8874 17.832 12.911L17.736 13.241L17.686 13.395L17.632 13.551L17.615 13.594L17.565 13.724L17.501 13.881L17.441 14.021C17.438 14.029 17.434 14.036 17.431 14.044L17.363 14.19L17.289 14.342L17.133 14.638L17.059 14.768C16.859 15.13 16.615 15.47 16.361 15.785L16.254 15.915L16.1 16.095L15.96 16.249L15.558 16.649L15.473 16.727L15.333 16.85L15.219 16.946L14.923 17.176L14.797 17.276L14.589 17.416L14.471 17.49L14.051 17.724L13.949 17.774L13.842 17.824L13.707 17.881C13.69 17.889 13.672 17.896 13.654 17.901L13.494 17.961L13.292 18.025L13.152 18.062L13.002 18.095L12.965 18.102L12.85 18.12L12.686 18.138C12.6674 18.1407 12.6487 18.142 12.63 18.142L12.5 18.146H12.496C12.454 18.146 12.411 18.145 12.369 18.142C12.353 18.142 12.336 18.141 12.319 18.138L12.199 18.128C12.191 18.128 12.181 18.127 12.173 18.125L12.02 18.1L11.887 18.073C11.653 18.02 11.413 17.939 11.17 17.831C10.954 17.735 10.744 17.625 10.543 17.501L10.229 17.296L10.073 17.184L9.59099 16.796L9.46099 16.676L9.33099 16.556L9.01899 16.236L8.89899 16.106L8.58199 15.723L8.46899 15.577L8.07699 15.005L7.97999 14.845L7.86799 14.65C7.72999 14.402 7.60599 14.147 7.49599 13.885L7.44899 13.77L7.38899 13.62L7.31099 13.403L7.24099 13.183L7.17899 12.968L7.11899 12.734L7.11399 12.709L7.04399 12.377L6.97799 11.927L6.96299 11.784L6.95099 11.634L6.93699 11.357L6.93399 11.177L7.82199 12.924L9.34799 13.589L16.543 14.239L18.058 11.177L18.063 11.168ZM16.879 3.583C16.6077 4.19582 16.2567 4.77012 15.835 5.291L15.76 5.391C14.8947 6.43347 13.7684 7.22781 12.496 7.693C12.156 7.818 11.806 7.919 11.452 7.993L10.722 8.113C10.434 8.145 10.144 8.161 9.85499 8.161C9.51899 8.161 9.18999 8.139 8.86499 8.097C8.54799 8.057 8.23799 7.999 7.93499 7.919L7.42499 7.769L6.93899 7.589V7.025C6.93899 3.955 9.42699 1.465 12.496 1.465H12.501C12.9154 1.46518 13.3286 1.51112 13.733 1.602C14.0908 1.6828 14.4395 1.79939 14.774 1.95C15.224 2.152 15.644 2.412 16.021 2.72C16.338 2.97853 16.6251 3.27168 16.877 3.594V3.595L16.879 3.583Z" fill="#543E36"/>
<path d="M18.063 7.014V8.108C17.115 7.375 16.329 6.448 15.763 5.388C15.1914 4.32195 14.8546 3.14597 14.775 1.939C15.2229 2.13972 15.6422 2.39898 16.022 2.71C16.339 2.97 16.627 3.262 16.879 3.584C17.649 4.562 18.065 5.77 18.064 7.014V7.015L18.063 7.014ZM7.59998 7.443L7.43498 7.759L7.37498 7.889C7.10698 8.487 6.97098 9.075 6.95098 9.606L6.94998 9.653V7.5L6.95298 7.275L7.60298 7.435L7.59998 7.443Z" fill="#543E36"/>
<path d="M17.414 7.44301L17.64 7.88901C17.917 8.50601 18.052 9.10901 18.065 9.65201V7.51001L18.062 7.28601L17.412 7.44401H17.413L17.414 7.44301Z" fill="#543E36"/>
<path d="M17.403 7.995C17.403 7.972 17.385 7.951 17.363 7.949C16.6893 7.8519 16.0097 7.80111 15.329 7.797C14.249 7.797 12.854 8.137 12.609 8.137H12.393C12.279 8.137 11.916 8.063 11.453 7.987C10.919 7.887 10.253 7.8 9.67601 7.8C9.09466 7.80349 8.51401 7.84088 7.93701 7.912L7.64201 7.952C7.61901 7.955 7.60201 7.975 7.60201 7.998L7.59201 8.578C7.59201 8.588 7.59501 8.598 7.60201 8.606C7.60901 8.614 7.61501 8.621 7.62501 8.624L7.69101 8.647C7.78801 8.684 7.78101 10.434 8.30101 10.871C8.60101 11.129 8.88701 11.277 10.051 11.277C10.725 11.277 11.148 11.095 11.551 10.553C11.851 10.163 12.097 9.253 12.097 9.253C12.175 8.873 12.457 8.853 12.503 8.84H12.508C12.518 8.84 12.836 8.845 12.918 9.253C12.918 9.253 13.175 10.173 13.464 10.553C13.866 11.095 14.288 11.277 14.964 11.277C16.127 11.277 16.402 11.131 16.714 10.871C17.236 10.433 17.228 8.684 17.324 8.647L17.39 8.624C17.4 8.62 17.407 8.614 17.413 8.606C17.419 8.598 17.423 8.588 17.423 8.578L17.413 7.998L17.403 7.995ZM11.543 10.065C11.373 10.469 10.931 10.991 10.309 11.023C8.44401 11.117 8.35901 10.597 8.23901 10.183C8.12046 9.79921 8.08467 9.39464 8.13401 8.996C8.18401 8.583 8.28701 8.342 8.47401 8.22C8.55401 8.167 8.64201 8.12 8.86601 8.085C9.06601 8.055 9.37601 8.037 9.89301 8.037C10.1706 8.03604 10.4478 8.05744 10.722 8.101C11.386 8.208 11.834 8.433 11.834 8.656C11.834 8.808 11.796 9.456 11.544 10.066L11.543 10.065ZM16.763 10.185C16.643 10.598 16.557 11.118 14.693 11.025C14.071 10.995 13.63 10.472 13.459 10.067C13.2806 9.61823 13.1821 9.14171 13.168 8.659C13.168 8.353 14.018 8.039 15.108 8.039C16.198 8.039 16.374 8.121 16.528 8.222C16.715 8.344 16.818 8.585 16.868 8.998C16.918 9.411 16.884 9.773 16.763 10.185Z" fill="#1A1A1A"/>
<path d="M12.507 12.046L12.501 15.464H12.5L12.496 15.461L7.12299 12.726L7.11799 12.702L7.04799 12.37L6.98199 11.92L6.96699 11.777L6.95499 11.627L6.94099 11.35L6.93799 11.17V9.53601L6.93899 9.60601C6.95335 10.0366 7.01881 10.4639 7.13399 10.879C7.22699 11.219 7.34599 11.536 7.48199 11.817V11.818C7.83999 12.563 8.31999 13.068 8.76199 13.15L8.84499 13.16C9.02229 13.1799 9.20057 13.19 9.37899 13.19C10.076 13.19 10.694 12.63 11.084 12.403L11.151 12.363C11.495 12.166 11.968 12.047 12.495 12.046H12.505H12.507Z" fill="#543E36"/>
<path d="M18.064 9.53603L18.063 11.169C18.0628 11.5718 18.0264 11.9738 17.954 12.37L17.854 12.833L16.592 14.653L12.499 15.453L12.495 12.035H12.505C13.032 12.036 13.505 12.155 13.835 12.342L13.91 12.388C14.307 12.618 14.925 13.178 15.622 13.178C15.8004 13.1779 15.9787 13.1679 16.156 13.148L16.241 13.138C16.681 13.056 17.161 12.551 17.518 11.806V11.805C17.654 11.525 17.772 11.208 17.866 10.867C17.989 10.417 18.053 9.97702 18.061 9.57702L18.062 9.52502H18.064V9.53603Z" fill="#543E36"/>
<path d="M12.5 14.234C13.253 14.234 13.863 14.044 13.863 13.814C13.863 13.584 13.263 13.394 12.5 13.394C11.737 13.394 11.137 13.584 11.137 13.814C11.137 14.044 11.737 14.234 12.5 14.234Z" fill="#ECC19C"/>
<path d="M8.52 20.62V28.135H7.94V21.045L8.175 20.862L8.52 20.622V20.62ZM16.48 20.621V28.135H17.06V21.035L16.48 20.612V20.621Z" fill="#435363"/>
<path d="M10.91 20.16L12.5 22.065L14.09 20.16H10.91Z" fill="#141720"/>
<path d="M12.5 29.955H11.56L12.238 21.212C12.268 21.322 12.731 21.322 12.76 21.212L13.438 29.955H12.5Z" fill="#141720"/>
<path d="M12.5 20.15L12.496 20.157L12.495 20.16L11.219 22.3L9.54999 19.98L9.70699 19.858L9.70999 19.861C10.046 19.594 10.342 19.281 10.59 18.931L12.49 20.147V20.149L12.5 20.15Z" fill="#E7ECF2"/>
<path d="M15.45 19.98L13.782 22.3L12.5 20.15L14.418 18.93C14.6662 19.2819 14.9628 19.597 15.299 19.866L15.451 19.983L15.45 19.98Z" fill="#E7ECF2"/>
</g>
<defs>
<clipPath id="clip0">
<rect width="25" height="25" fill="white"/>
</clipPath>
</defs>
</svg>
